<?xml version="1.0" encoding="utf-8"?>
<!-- Generator: Adobe Illustrator 27.5.0, SVG Export Plug-In . SVG Version: 6.00 Build 0)  -->
<svg version="1.1" xmlns="http://www.w3.org/2000/svg" xmlns:xlink="http://www.w3.org/1999/xlink" x="0px" y="0px"
	 viewBox="0 0 500.16 500.16" style="enable-background:new 0 0 500.16 500.16;" xml:space="preserve">
<g id="BACKGROUND">
	<rect x="0" y="0" style="fill-rule:evenodd;clip-rule:evenodd;fill:#FFFFFF;" width="500.16" height="500.16"/>
</g>
<g id="OBJECTS">
	<g>
		<path style="fill-rule:evenodd;clip-rule:evenodd;fill:#E8F2FF;" d="M266.065,386.49c17.926-46.763,117.686-34.293,98.202,12.47
			c60.355-28.058,55.547,30.395,9.352,40.528c-57.674,12.47-236.152,11.691-260.313,0c-24.94-20.264,8.573-58.453,74.821-38.968
			C170.2,309.332,245.801,341.285,266.065,386.49z"/>
		<path style="fill-rule:evenodd;clip-rule:evenodd;fill:#C5DCFA;" d="M148.961,153.878h61.984
			c0.452-27.146,12.216-40.267,34.385-40.267c19.907,0,31.67,8.597,31.67,27.599c0,43.434-55.649,47.505-55.649,117.18h60.173
			c0-52.935,69.675-61.983,69.675-130.301c0-50.672-37.552-79.176-98.178-79.176C188.323,48.914,149.414,87.371,148.961,153.878
			L148.961,153.878z M250.306,292.775c-22.622,0-38.456,15.835-38.456,38.909c0,23.074,15.835,39.362,38.456,39.362
			c22.622,0,38.91-16.288,38.91-39.362C289.216,308.61,272.928,292.775,250.306,292.775z"/>
		<g>
			<g>
				<path style="fill-rule:evenodd;clip-rule:evenodd;fill:#C9DAF0;" d="M348.11,424.93c3.654-9.099,0.064-39.422-9.046-38.132
					C326.84,388.53,334.559,419.927,348.11,424.93z"/>
				<path style="fill-rule:evenodd;clip-rule:evenodd;fill:#C9DAF0;" d="M350.164,425.545c5.078-8.388,31.498-11.887,35.94-3.829
					C392.065,432.527,362.305,433.37,350.164,425.545z"/>
			</g>
			<g>
				<path style="fill-rule:evenodd;clip-rule:evenodd;fill:#C9DAF0;" d="M364.616,397.621c6.804-3.851,14.592-25.626,7.614-27.888
					C363.886,367.029,358.663,387.762,364.616,397.621z"/>
				<path style="fill-rule:evenodd;clip-rule:evenodd;fill:#C9DAF0;" d="M365.882,398.77c5.153-5.88,28.973-8.41,28.82-1.075
					C394.555,404.821,372.21,404.573,365.882,398.77z"/>
			</g>
			<g>
				<path style="fill-rule:evenodd;clip-rule:evenodd;fill:#C9DAF0;" d="M353.879,410.315c6.2-5.883,9.73-30.52,2.981-32.286
					C347.744,375.644,344.958,401.431,353.879,410.315z"/>
				<path style="fill-rule:evenodd;clip-rule:evenodd;fill:#C9DAF0;" d="M355.601,411.042c6.551-7.197,32.99-10.134,32.66-3.377
					C387.749,418.148,363.736,416.507,355.601,411.042z"/>
			</g>
			<g>
				<path style="fill-rule:evenodd;clip-rule:evenodd;fill:#C9DAF0;" d="M421.382,346.283c1.434-3.893-2.192-15.68-5.806-14.234
					C410.72,333.992,415.59,344.335,421.382,346.283z"/>
				<path style="fill-rule:evenodd;clip-rule:evenodd;fill:#C9DAF0;" d="M422.285,346.367c0.313-4.136,6.683-11.708,9.471-8.954
					C435.471,341.083,428.363,346.999,422.285,346.367z"/>
			</g>
			<g>
				<path style="fill-rule:evenodd;clip-rule:evenodd;fill:#C9DAF0;" d="M415.315,358.598c2.635-4.043,0.348-18.225-4.055-17.16
					C405.371,342.862,409.251,354.885,415.315,358.598z"/>
				<path style="fill-rule:evenodd;clip-rule:evenodd;fill:#C9DAF0;" d="M416.317,358.928c1.427-4.611,12.703-13.189,15.152-8.833
					C434.446,355.392,423.047,361.221,416.317,358.928z"/>
			</g>
			<g>
				<path style="fill-rule:evenodd;clip-rule:evenodd;fill:#C9DAF0;" d="M406.632,368.503c3.756-3.678,2.393-20.744-2.484-19.998
					C397.704,349.491,401.058,363.124,406.632,368.503z"/>
				<path style="fill-rule:evenodd;clip-rule:evenodd;fill:#C9DAF0;" d="M407.62,369.089c2.605-4.567,15.546-10.412,17.453-5.659
					C427.538,369.573,414.237,373.115,407.62,369.089z"/>
			</g>
			<g>
				<path style="fill-rule:evenodd;clip-rule:evenodd;fill:#C9DAF0;" d="M393.604,378.059c5.315-3.451,9.31-21.442,3.579-23.029
					C389.941,353.023,388.3,370.376,393.604,378.059z"/>
				<path style="fill-rule:evenodd;clip-rule:evenodd;fill:#C9DAF0;" d="M394.632,378.988c4.166-4.775,20.243-9.854,21.701-4.433
					C418.407,382.259,401.491,385.321,394.632,378.988z"/>
			</g>
			<g>
				<path style="fill-rule:evenodd;clip-rule:evenodd;fill:#C9DAF0;" d="M379.125,386.635c6.252-3.4,12.602-21.03,6.94-24.57
					C378.9,357.583,373.859,377.57,379.125,386.635z"/>
				<path style="fill-rule:evenodd;clip-rule:evenodd;fill:#C9DAF0;" d="M380.196,387.765c5.082-4.982,25.687-5.65,24.581,0.113
					C403.469,394.688,387.321,395.456,380.196,387.765z"/>
			</g>
			<path style="fill-rule:evenodd;clip-rule:evenodd;fill:#C9DAF0;" d="M347.13,444.606c0.042,4.131,5.742,3.626,4.826-0.69
				c-7.507-66.122,65.61-47.205,72.912-109.24c0.302-2.523-1.946-2.737-2.248-0.214C415.598,394.12,339.257,375.259,347.13,444.606z
				"/>
			<path style="fill-rule:evenodd;clip-rule:evenodd;fill:#C9DAF0;" d="M423.431,337.402c6.558-4.049,6.146-14.445,2.305-15.08
				C421.121,321.56,419.304,333.166,423.431,337.402z"/>
		</g>
		<g>
			<path style="fill-rule:evenodd;clip-rule:evenodd;fill:#B8CCE6;" d="M317.211,432.428c-0.07,0.954,1.178,0.739,2.788-0.478
				c1.609-1.218,2.971-2.978,3.041-3.931c0.731-9.78,11.789-40.046,29.715-71.969c12.145-21.629,27.371-43.883,44.479-60.629
				c1.52-1.488,2.316-3.042,1.777-3.47c-0.539-0.428-2.209,0.431-3.729,1.919c-18.627,18.233-34.858,41.845-47.621,64.575
				C329.303,391.134,317.969,422.286,317.211,432.428z"/>
			<path style="fill-rule:evenodd;clip-rule:evenodd;fill:#B8CCE6;" d="M343.425,379.308c7.987,1.916,36.798-1.879,37.588-12.104
				c0.973-12.6-33.124,6.388-37.595,8.468C338.295,378.056,338.944,378.233,343.425,379.308z"/>
			<path style="fill-rule:evenodd;clip-rule:evenodd;fill:#B8CCE6;" d="M352.642,359.919c6.722,1.612,30.968-1.581,31.633-10.186
				c0.819-10.604-27.876,5.376-31.638,7.126C348.325,358.866,348.871,359.015,352.642,359.919z"/>
			<path style="fill-rule:evenodd;clip-rule:evenodd;fill:#B8CCE6;" d="M362.189,343.148c5.932,1.423,27.33-1.395,27.916-8.989
				c0.723-9.358-24.601,4.744-27.921,6.289C358.379,342.219,358.861,342.35,362.189,343.148z"/>
			<path style="fill-rule:evenodd;clip-rule:evenodd;fill:#B8CCE6;" d="M372.839,328.981c4.616,1.107,21.265-1.086,21.722-6.995
				c0.562-7.281-19.142,3.691-21.725,4.893C369.875,328.257,370.25,328.36,372.839,328.981z"/>
			<path style="fill-rule:evenodd;clip-rule:evenodd;fill:#B8CCE6;" d="M383.149,315.437c3.826,0.918,17.626-0.9,18.005-5.798
				c0.466-6.035-15.867,3.06-18.008,4.056C380.691,314.838,381.002,314.923,383.149,315.437z"/>
			<path style="fill-rule:evenodd;clip-rule:evenodd;fill:#B8CCE6;" d="M391.572,303.43c2.773,0.665,12.775-0.652,13.049-4.202
				c0.338-4.374-11.499,2.217-13.051,2.939C389.791,302.996,390.016,303.057,391.572,303.43z"/>
			<path style="fill-rule:evenodd;clip-rule:evenodd;fill:#B8CCE6;" d="M397.107,294.447c3.167-1.291,12.482-9.111,10.744-12.316
				c-2.141-3.949-10.311,9.589-11.462,11.243C395.069,295.27,395.33,295.171,397.107,294.447z"/>
			<path style="fill-rule:evenodd;clip-rule:evenodd;fill:#B8CCE6;" d="M335.986,374.804c-5.311-6.375-15.114-34.243-6.541-39.616
				c10.565-6.62,9.502,32.963,9.72,37.966C339.416,378.889,338.966,378.38,335.986,374.804z"/>
			<path style="fill-rule:evenodd;clip-rule:evenodd;fill:#B8CCE6;" d="M346.345,355.965c-4.297-5.533-11.843-29.344-4.53-33.638
				c9.011-5.291,7.171,28.104,7.234,32.335C349.12,359.512,348.755,359.07,346.345,355.965z"/>
			<path style="fill-rule:evenodd;clip-rule:evenodd;fill:#B8CCE6;" d="M356.892,338.387c-3.361-5.264-8.303-27.034-1.648-30.261
				c8.202-3.977,4.323,25.555,4.089,29.32C359.065,341.762,358.778,341.34,356.892,338.387z"/>
			<path style="fill-rule:evenodd;clip-rule:evenodd;fill:#B8CCE6;" d="M367.444,325.185c-2.538-4.158-6.082-21.212-0.873-23.623
				c6.419-2.971,3.012,19.996,2.78,22.929C369.085,327.851,368.868,327.517,367.444,325.185z"/>
			<path style="fill-rule:evenodd;clip-rule:evenodd;fill:#B8CCE6;" d="M378.575,311.54c-2.171-3.392-5.372-17.428-1.08-19.513
				c5.288-2.57,2.803,16.477,2.654,18.905C379.978,313.716,379.793,313.444,378.575,311.54z"/>
			<path style="fill-rule:evenodd;clip-rule:evenodd;fill:#B8CCE6;" d="M388.209,299.845c-1.464-2.545-3.356-12.875-0.205-14.245
				c3.883-1.688,1.534,12.094,1.356,13.857C389.156,301.478,389.031,301.273,388.209,299.845z"/>
			<path style="fill-rule:evenodd;clip-rule:evenodd;fill:#B8CCE6;" d="M334.275,402.721c8.402,1.395,38.071-4.505,38.282-15.005
				c0.26-12.938-33.991,8.853-38.505,11.291C328.877,401.803,329.561,401.938,334.275,402.721z"/>
			<path style="fill-rule:evenodd;clip-rule:evenodd;fill:#B8CCE6;" d="M324.986,398.521c-5.38-5.606-16.186-30.975-8.353-36.537
				c9.653-6.854,10.797,30.141,11.276,34.794C328.458,402.112,328.004,401.666,324.986,398.521z"/>
			<path style="fill-rule:evenodd;clip-rule:evenodd;fill:#B8CCE6;" d="M325.625,421.121c7.442,2.416,34.935,0.825,36.302-8.964
				c1.684-12.061-31.731,3.78-36.088,5.463C320.846,419.548,321.45,419.765,325.625,421.121z"/>
			<path style="fill-rule:evenodd;clip-rule:evenodd;fill:#B8CCE6;" d="M319.237,418.621c-6.734-4.639-22.707-28.402-15.28-35.7
				c9.152-8.993,16.79,28.651,18.11,33.317C323.579,421.587,323.015,421.224,319.237,418.621z"/>
		</g>
		<g>
			<g>
				<path style="fill-rule:evenodd;clip-rule:evenodd;fill:#B8CCE6;" d="M184.718,404.073c-3.792-9.043-0.662-39.417,8.467-38.264
					C205.434,367.354,198.192,398.865,184.718,404.073z"/>
				<path style="fill-rule:evenodd;clip-rule:evenodd;fill:#B8CCE6;" d="M182.674,404.718c-5.204-8.31-31.674-11.408-35.994-3.284
					C140.883,412.334,170.653,412.727,182.674,404.718z"/>
			</g>
			<g>
				<path style="fill-rule:evenodd;clip-rule:evenodd;fill:#B8CCE6;" d="M167.8,377.017c-6.862-3.747-14.979-25.402-8.035-27.769
					C168.067,346.417,173.604,367.068,167.8,377.017z"/>
				<path style="fill-rule:evenodd;clip-rule:evenodd;fill:#B8CCE6;" d="M166.552,378.185c-5.242-5.801-29.096-7.97-28.833-0.638
					C137.975,384.67,160.314,384.083,166.552,378.185z"/>
			</g>
			<g>
				<path style="fill-rule:evenodd;clip-rule:evenodd;fill:#B8CCE6;" d="M178.729,389.547c-6.288-5.789-10.191-30.368-3.47-32.237
					C184.338,354.787,187.514,380.528,178.729,389.547z"/>
				<path style="fill-rule:evenodd;clip-rule:evenodd;fill:#B8CCE6;" d="M177.018,390.3c-6.659-7.097-33.139-9.633-32.707-2.882
					C144.982,397.892,168.967,395.887,177.018,390.3z"/>
			</g>
			<g>
				<path style="fill-rule:evenodd;clip-rule:evenodd;fill:#B8CCE6;" d="M110.264,326.545c-1.492-3.871,1.954-15.711,5.59-14.32
					C120.738,314.093,116.025,324.509,110.264,326.545z"/>
				<path style="fill-rule:evenodd;clip-rule:evenodd;fill:#B8CCE6;" d="M109.362,326.643c-0.375-4.131-6.859-11.606-9.606-8.81
					C96.097,321.559,103.294,327.367,109.362,326.643z"/>
			</g>
			<g>
				<path style="fill-rule:evenodd;clip-rule:evenodd;fill:#B8CCE6;" d="M116.517,338.767c-2.697-4.003-0.624-18.218,3.794-17.22
					C126.22,322.882,122.523,334.962,116.517,338.767z"/>
				<path style="fill-rule:evenodd;clip-rule:evenodd;fill:#B8CCE6;" d="M115.519,339.111c-1.497-4.589-12.901-12.995-15.284-8.602
					C97.339,335.851,108.825,341.506,115.519,339.111z"/>
			</g>
			<g>
				<path style="fill-rule:evenodd;clip-rule:evenodd;fill:#B8CCE6;" d="M125.349,348.538c-3.811-3.621-2.706-20.705,2.181-20.033
					C133.987,329.393,130.84,343.076,125.349,348.538z"/>
				<path style="fill-rule:evenodd;clip-rule:evenodd;fill:#B8CCE6;" d="M124.369,349.14c-2.674-4.527-15.702-10.175-17.537-5.394
					C104.461,349.925,117.815,353.265,124.369,349.14z"/>
			</g>
			<g>
				<path style="fill-rule:evenodd;clip-rule:evenodd;fill:#B8CCE6;" d="M138.52,357.896c-5.366-3.371-9.634-21.298-3.927-22.973
					C141.803,332.807,143.706,350.134,138.52,357.896z"/>
				<path style="fill-rule:evenodd;clip-rule:evenodd;fill:#B8CCE6;" d="M137.506,358.84c-4.238-4.711-20.39-9.546-21.766-4.103
					C113.784,362.472,130.744,365.277,137.506,358.84z"/>
			</g>
			<g>
				<path style="fill-rule:evenodd;clip-rule:evenodd;fill:#B8CCE6;" d="M153.126,366.252c-6.303-3.305-12.918-20.836-7.311-24.463
					C152.912,337.2,158.255,357.108,153.126,366.252z"/>
				<path style="fill-rule:evenodd;clip-rule:evenodd;fill:#B8CCE6;" d="M152.074,367.398c-5.157-4.905-25.769-5.26-24.576,0.486
					C128.907,374.673,145.066,375.196,152.074,367.398z"/>
			</g>
			<path style="fill-rule:evenodd;clip-rule:evenodd;fill:#B8CCE6;" d="M185.997,423.731c0.02,4.131-5.687,3.712-4.836-0.617
				c6.504-66.228-66.318-46.205-74.559-108.122c-0.34-2.518,1.904-2.766,2.244-0.248
				C116.772,374.289,192.818,354.273,185.997,423.731z"/>
			<path style="fill-rule:evenodd;clip-rule:evenodd;fill:#B8CCE6;" d="M108.08,317.696c-6.619-3.949-6.364-14.35-2.533-15.043
				C110.15,301.821,112.142,313.398,108.08,317.696z"/>
		</g>
		<g>
			<path style="fill-rule:evenodd;clip-rule:evenodd;fill:#C9DAF0;" d="M186.247,439.027c0.874,0.256,0.925-0.95,0.113-2.694
				c-0.812-1.744-2.18-3.365-3.054-3.621c-8.967-2.64-34.957-19.003-61.116-42.099c-17.723-15.648-35.412-34.292-47.592-53.587
				c-1.082-1.714-2.37-2.767-2.877-2.35c-0.507,0.417-0.041,2.144,1.042,3.859c13.261,21.008,32.015,40.86,50.64,57.305
				C150.188,419.491,176.948,436.29,186.247,439.027z"/>
			<path style="fill-rule:evenodd;clip-rule:evenodd;fill:#C9DAF0;" d="M141.995,403.964c3.384-7.059,5.617-34.667-3.753-37.45
				c-11.546-3.429-0.679,32.146,0.364,36.728C139.801,408.494,140.096,407.924,141.995,403.964z"/>
			<path style="fill-rule:evenodd;clip-rule:evenodd;fill:#C9DAF0;" d="M125.773,391.493c2.848-5.941,4.727-29.174-3.159-31.516
				c-9.717-2.886-0.572,27.053,0.306,30.909C123.927,395.306,124.175,394.826,125.773,391.493z"/>
			<path style="fill-rule:evenodd;clip-rule:evenodd;fill:#C9DAF0;" d="M112.057,379.239c2.513-5.243,4.171-25.747-2.788-27.814
				c-8.575-2.547-0.505,23.874,0.27,27.277C110.427,382.604,110.646,382.181,112.057,379.239z"/>
			<path style="fill-rule:evenodd;clip-rule:evenodd;fill:#C9DAF0;" d="M100.987,366.478c1.956-4.08,3.246-20.034-2.169-21.642
				c-6.672-1.982-0.393,18.576,0.21,21.224C99.719,369.096,99.889,368.767,100.987,366.478z"/>
			<path style="fill-rule:evenodd;clip-rule:evenodd;fill:#C9DAF0;" d="M90.43,354.159c1.621-3.381,2.69-16.605-1.798-17.938
				c-5.531-1.643-0.326,15.398,0.174,17.593C89.38,356.329,89.521,356.057,90.43,354.159z"/>
			<path style="fill-rule:evenodd;clip-rule:evenodd;fill:#C9DAF0;" d="M80.928,343.906c1.175-2.451,1.95-12.035-1.303-13.001
				c-4.008-1.19-0.236,11.16,0.126,12.75C80.166,345.479,80.269,345.281,80.928,343.906z"/>
			<path style="fill-rule:evenodd;clip-rule:evenodd;fill:#C9DAF0;" d="M73.665,336.95c-0.569-3.209-5.991-13.455-9.325-12.478
				c-4.109,1.204,6.871,11.528,8.182,12.932C74.024,339.014,73.984,338.751,73.665,336.95z"/>
			<path style="fill-rule:evenodd;clip-rule:evenodd;fill:#C9DAF0;" d="M136.308,409.994c-7.004,3.672-34.936,7.228-38.225-1.837
				c-4.054-11.17,32.618-2.255,37.324-1.457C140.802,407.616,140.238,407.934,136.308,409.994z"/>
			<path style="fill-rule:evenodd;clip-rule:evenodd;fill:#C9DAF0;" d="M120.827,396.57c-6.017,2.896-29.716,5.161-32.253-2.513
				c-3.126-9.456,27.625-1.056,31.58-0.267C124.688,394.694,124.203,394.945,120.827,396.57z"/>
			<path style="fill-rule:evenodd;clip-rule:evenodd;fill:#C9DAF0;" d="M106.559,383.222c-5.578,2.079-26.854,2.325-28.529-4.523
				c-2.063-8.439,24.679,1.088,28.141,2.06C110.139,381.872,109.688,382.056,106.559,383.222z"/>
			<path style="fill-rule:evenodd;clip-rule:evenodd;fill:#C9DAF0;" d="M96.369,370.746c-4.383,1.533-20.984,1.421-22.188-3.916
				c-1.483-6.576,19.237,1.197,21.923,2C99.183,369.75,98.828,369.886,96.369,370.746z"/>
			<path style="fill-rule:evenodd;clip-rule:evenodd;fill:#C9DAF0;" d="M85.883,357.642c-3.596,1.344-17.316,1.516-18.4-2.9
				c-1.336-5.442,15.915,0.687,18.148,1.311C88.191,356.769,87.901,356.888,85.883,357.642z"/>
			<path style="fill-rule:evenodd;clip-rule:evenodd;fill:#C9DAF0;" d="M76.914,346.322c-2.665,0.854-12.67,0.55-13.315-2.661
				c-0.795-3.956,11.577,0.991,13.184,1.511C78.625,345.766,78.409,345.843,76.914,346.322z"/>
			<path style="fill-rule:evenodd;clip-rule:evenodd;fill:#C9DAF0;" d="M161.981,417.178c2.982-7.55,3.424-36.379-6.317-38.677
				c-12.004-2.832,1.444,33.446,2.813,38.142C160.045,422.025,160.307,421.414,161.981,417.178z"/>
			<path style="fill-rule:evenodd;clip-rule:evenodd;fill:#C9DAF0;" d="M156.207,424.993c-6.301,3.891-32.105,8.882-35.72,0.468
				c-4.454-10.367,30.249-4.027,34.681-3.542C160.249,422.476,159.743,422.81,156.207,424.993z"/>
			<path style="fill-rule:evenodd;clip-rule:evenodd;fill:#C9DAF0;" d="M177.395,428.922c3.742-6.451,7.763-32.389-1.085-35.622
				c-10.902-3.984-2.831,30.326-2.135,34.722C174.973,433.061,175.296,432.541,177.395,428.922z"/>
			<path style="fill-rule:evenodd;clip-rule:evenodd;fill:#C9DAF0;" d="M173.787,434.375c-5.671,5.347-31.013,15.474-36.327,7.091
				c-6.548-10.329,30.06-9.91,34.673-10.205C177.419,430.922,176.968,431.375,173.787,434.375z"/>
		</g>
		<ellipse style="fill-rule:evenodd;clip-rule:evenodd;fill:#C9DAF0;" cx="250.08" cy="442.206" rx="148.467" ry="19.043"/>
		<path style="fill-rule:evenodd;clip-rule:evenodd;fill:#002E6C;" d="M301.55,152.602c-0.661,3.905-5.48,9.349-5.814,12.881
			c-1.096,11.598,8.446,22.385,24.046,21.196c22.03-1.68,30.86-1.548,33.314-14.859c1.984-10.762-3.437-13.17-3.708-20.436
			c-0.156-4.194,0.624-7.196-1.91-12.695c-7.305-15.854-30.18-16.172-36.111-8.938c-1.559,1.902-6.043,1.796-8.84,7.641
			C300.149,142.359,302.564,146.618,301.55,152.602z"/>
		<path style="fill-rule:evenodd;clip-rule:evenodd;fill:#FFFFFF;" d="M322.581,259.583c-5.772,5.781-18.626,7.396-25.223,6.191
			C298.883,248.352,301.041,241.068,322.581,259.583z"/>
		<path style="fill-rule:evenodd;clip-rule:evenodd;fill:#184F96;" d="M318.166,438.509c-6.449,4.185-23.09,6.336-31.132,4.778
			c-4.503-0.873-4.804-7.372,1.105-9.872c10.196-4.314,19.709-7.326,30.546-9.681C319.632,428.956,321.027,436.652,318.166,438.509z
			"/>
		<path style="fill-rule:evenodd;clip-rule:evenodd;fill:#BA8B80;" d="M307.585,426.441c-16.679,4.603,10.698,10.405,11.462,0.439
			c-1-48.864,2.501-46.656,0.554-82.574c-0.829-15.288-21.227-14.324-20.654,2.252C300.083,379.372,310.656,408.831,307.585,426.441
			z"/>
		<path style="fill-rule:evenodd;clip-rule:evenodd;fill:#184F96;" d="M349.025,445.383c-4.37,3.982-22.662,7.252-30.767,6.064
			c-4.539-0.665-4.797-7.031,0.991-9.8c9.988-4.777,19.012-8.335,29.73-11.184C350.164,435.635,351.547,443.085,349.025,445.383z"/>
		<path style="fill-rule:evenodd;clip-rule:evenodd;fill:#BA8B80;" d="M349.443,432.348c-1.822-34.368,0.744-54.484-0.897-81.21
			c-0.94-15.317-22.631-14.656-21.292,1.889c2.323,28.717,10.775,62.675,11.042,80.543
			C322.552,439.012,346.962,442.966,349.443,432.348z"/>
		<path style="fill-rule:evenodd;clip-rule:evenodd;fill:#F08156;" d="M358.143,356.661c-2.744-33.052,3.266-76.069-13.49-101.732
			c-15.686-6.703-35.372-4.613-44.279-4.72c-11.476,32.212-6.245,78.12-8.461,107.86
			C301.006,359.799,347.303,367.714,358.143,356.661z"/>
		<g>
			<defs>
				<path id="SVGID_1_" d="M358.143,356.661c-2.744-33.052,3.266-76.069-13.49-101.732c-15.686-6.703-35.372-4.613-44.279-4.72
					c-11.476,32.212-6.245,78.12-8.461,107.86C301.006,359.799,347.303,367.714,358.143,356.661z"/>
			</defs>
			<clipPath id="SVGID_00000026155591203781830620000014478916440035038598_">
				<use xlink:href="#SVGID_1_"  style="overflow:visible;"/>
			</clipPath>
			<g style="clip-path:url(#SVGID_00000026155591203781830620000014478916440035038598_);">
				<g style="opacity:0.5;">
					<path style="opacity:0.4;fill-rule:evenodd;clip-rule:evenodd;fill:#FFFFFF;" d="M288.029,358.11
						c1.16,0,2.101,0.941,2.101,2.101c0,1.161-0.941,2.102-2.101,2.102s-2.102-0.941-2.102-2.102
						C285.927,359.052,286.868,358.11,288.029,358.11z"/>
					<path style="opacity:0.4;fill-rule:evenodd;clip-rule:evenodd;fill:#FFFFFF;" d="M300.361,358.11
						c1.161,0,2.101,0.941,2.101,2.101c0,1.161-0.941,2.102-2.101,2.102c-1.16,0-2.102-0.941-2.102-2.102
						C298.26,359.052,299.201,358.11,300.361,358.11z"/>
					<path style="opacity:0.4;fill-rule:evenodd;clip-rule:evenodd;fill:#FFFFFF;" d="M312.694,358.11
						c1.161,0,2.102,0.941,2.102,2.101c0,1.161-0.941,2.102-2.102,2.102c-1.16,0-2.102-0.941-2.102-2.102
						C310.593,359.052,311.534,358.11,312.694,358.11z"/>
					<path style="opacity:0.4;fill-rule:evenodd;clip-rule:evenodd;fill:#FFFFFF;" d="M325.027,358.11
						c1.161,0,2.102,0.941,2.102,2.101c0,1.161-0.941,2.102-2.102,2.102c-1.16,0-2.102-0.941-2.102-2.102
						C322.926,359.052,323.867,358.11,325.027,358.11z"/>
					<path style="opacity:0.4;fill-rule:evenodd;clip-rule:evenodd;fill:#FFFFFF;" d="M337.36,358.11
						c1.161,0,2.102,0.941,2.102,2.101c0,1.161-0.941,2.102-2.102,2.102c-1.16,0-2.101-0.941-2.101-2.102
						C335.259,359.052,336.2,358.11,337.36,358.11z"/>
					<path style="opacity:0.4;fill-rule:evenodd;clip-rule:evenodd;fill:#FFFFFF;" d="M349.694,358.11
						c1.16,0,2.101,0.941,2.101,2.101c0,1.161-0.941,2.102-2.101,2.102c-1.161,0-2.102-0.941-2.102-2.102
						C347.592,359.051,348.533,358.11,349.694,358.11z"/>
					<path style="opacity:0.4;fill-rule:evenodd;clip-rule:evenodd;fill:#FFFFFF;" d="M362.026,358.11
						c1.161,0,2.102,0.941,2.102,2.101c0,1.161-0.941,2.102-2.102,2.102c-1.16,0-2.101-0.941-2.101-2.102
						C359.925,359.051,360.866,358.11,362.026,358.11z"/>
					<path style="opacity:0.4;fill-rule:evenodd;clip-rule:evenodd;fill:#FFFFFF;" d="M294.195,349.144
						c1.16,0,2.101,0.941,2.101,2.102s-0.941,2.101-2.101,2.101c-1.161,0-2.102-0.941-2.102-2.101S293.034,349.144,294.195,349.144z
						"/>
					<path style="opacity:0.4;fill-rule:evenodd;clip-rule:evenodd;fill:#FFFFFF;" d="M306.528,349.144
						c1.16,0,2.101,0.941,2.101,2.102s-0.94,2.101-2.101,2.101c-1.161,0-2.102-0.941-2.102-2.101S305.367,349.144,306.528,349.144z"
						/>
					<path style="opacity:0.4;fill-rule:evenodd;clip-rule:evenodd;fill:#FFFFFF;" d="M318.861,349.144
						c1.16,0,2.102,0.941,2.102,2.102s-0.941,2.101-2.102,2.101c-1.161,0-2.102-0.941-2.102-2.101S317.7,349.144,318.861,349.144z"
						/>
					<path style="opacity:0.4;fill-rule:evenodd;clip-rule:evenodd;fill:#FFFFFF;" d="M331.194,349.144
						c1.161,0,2.102,0.941,2.102,2.102s-0.941,2.101-2.102,2.101c-1.16,0-2.102-0.941-2.102-2.101S330.033,349.144,331.194,349.144z
						"/>
					<path style="opacity:0.4;fill-rule:evenodd;clip-rule:evenodd;fill:#FFFFFF;" d="M343.527,349.144
						c1.161,0,2.102,0.941,2.102,2.102s-0.941,2.101-2.102,2.101c-1.16,0-2.101-0.941-2.101-2.101S342.366,349.144,343.527,349.144z
						"/>
					<path style="opacity:0.4;fill-rule:evenodd;clip-rule:evenodd;fill:#FFFFFF;" d="M355.86,349.144
						c1.16,0,2.101,0.941,2.101,2.102s-0.941,2.101-2.101,2.101c-1.161,0-2.102-0.941-2.102-2.101S354.699,349.144,355.86,349.144z"
						/>
					<path style="opacity:0.4;fill-rule:evenodd;clip-rule:evenodd;fill:#FFFFFF;" d="M288.029,339.895
						c1.16,0,2.101,0.94,2.101,2.101c0,1.16-0.941,2.102-2.101,2.102s-2.102-0.941-2.102-2.102
						C285.927,340.835,286.868,339.895,288.029,339.895z"/>
					<path style="opacity:0.4;fill-rule:evenodd;clip-rule:evenodd;fill:#FFFFFF;" d="M300.361,339.894
						c1.161,0,2.101,0.94,2.101,2.101c0,1.16-0.941,2.102-2.101,2.102s-2.102-0.941-2.102-2.102
						C298.26,340.835,299.201,339.894,300.361,339.894z"/>
					<path style="opacity:0.4;fill-rule:evenodd;clip-rule:evenodd;fill:#FFFFFF;" d="M312.694,339.894
						c1.161,0,2.102,0.94,2.102,2.101c0,1.16-0.941,2.102-2.102,2.102c-1.16,0-2.102-0.941-2.102-2.102
						C310.593,340.835,311.534,339.894,312.694,339.894z"/>
					<path style="opacity:0.4;fill-rule:evenodd;clip-rule:evenodd;fill:#FFFFFF;" d="M325.027,339.894
						c1.161,0,2.102,0.94,2.102,2.101c0,1.16-0.941,2.102-2.102,2.102c-1.16,0-2.102-0.941-2.102-2.102
						C322.926,340.835,323.867,339.894,325.027,339.894z"/>
					<path style="opacity:0.4;fill-rule:evenodd;clip-rule:evenodd;fill:#FFFFFF;" d="M337.36,339.894
						c1.161,0,2.102,0.94,2.102,2.101c0,1.16-0.941,2.102-2.102,2.102c-1.16,0-2.101-0.941-2.101-2.102
						C335.259,340.835,336.2,339.894,337.36,339.894z"/>
					<path style="opacity:0.4;fill-rule:evenodd;clip-rule:evenodd;fill:#FFFFFF;" d="M349.694,339.894
						c1.16,0,2.101,0.94,2.101,2.101c0,1.161-0.941,2.102-2.101,2.102c-1.161,0-2.102-0.941-2.102-2.102
						C347.592,340.835,348.533,339.894,349.694,339.894z"/>
					<path style="opacity:0.4;fill-rule:evenodd;clip-rule:evenodd;fill:#FFFFFF;" d="M362.026,339.894
						c1.161,0,2.102,0.94,2.102,2.101c0,1.161-0.941,2.102-2.102,2.102c-1.16,0-2.101-0.941-2.101-2.102
						C359.925,340.835,360.866,339.894,362.026,339.894z"/>
					<path style="opacity:0.4;fill-rule:evenodd;clip-rule:evenodd;fill:#FFFFFF;" d="M294.195,330.929
						c1.161,0,2.102,0.941,2.102,2.101s-0.941,2.101-2.102,2.101c-1.161,0-2.101-0.941-2.101-2.101S293.034,330.929,294.195,330.929
						z"/>
					<path style="opacity:0.4;fill-rule:evenodd;clip-rule:evenodd;fill:#FFFFFF;" d="M306.528,330.929
						c1.16,0,2.101,0.941,2.101,2.101s-0.94,2.101-2.101,2.101c-1.161,0-2.102-0.941-2.102-2.101S305.367,330.929,306.528,330.929z"
						/>
					<path style="opacity:0.4;fill-rule:evenodd;clip-rule:evenodd;fill:#FFFFFF;" d="M318.861,330.928
						c1.16,0,2.102,0.941,2.102,2.102s-0.941,2.101-2.102,2.101c-1.161,0-2.102-0.941-2.102-2.101S317.7,330.928,318.861,330.928z"
						/>
					<path style="opacity:0.4;fill-rule:evenodd;clip-rule:evenodd;fill:#FFFFFF;" d="M331.194,330.928
						c1.161,0,2.102,0.941,2.102,2.102s-0.941,2.101-2.102,2.101c-1.16,0-2.102-0.941-2.102-2.101S330.033,330.928,331.194,330.928z
						"/>
					<path style="opacity:0.4;fill-rule:evenodd;clip-rule:evenodd;fill:#FFFFFF;" d="M343.527,330.928
						c1.161,0,2.102,0.941,2.102,2.102s-0.941,2.101-2.102,2.101c-1.16,0-2.101-0.941-2.101-2.101S342.366,330.928,343.527,330.928z
						"/>
					<path style="opacity:0.4;fill-rule:evenodd;clip-rule:evenodd;fill:#FFFFFF;" d="M355.86,330.928
						c1.16,0,2.101,0.941,2.101,2.102s-0.941,2.101-2.101,2.101c-1.161,0-2.102-0.941-2.102-2.101S354.699,330.928,355.86,330.928z"
						/>
					<path style="opacity:0.4;fill-rule:evenodd;clip-rule:evenodd;fill:#FFFFFF;" d="M288.029,321.678
						c1.16,0,2.101,0.941,2.101,2.101c0,1.161-0.941,2.102-2.101,2.102s-2.102-0.941-2.102-2.102
						C285.927,322.619,286.868,321.678,288.029,321.678z"/>
					<path style="opacity:0.4;fill-rule:evenodd;clip-rule:evenodd;fill:#FFFFFF;" d="M300.361,321.678
						c1.161,0,2.101,0.941,2.101,2.101c0,1.161-0.941,2.102-2.101,2.102s-2.102-0.941-2.102-2.102
						C298.26,322.619,299.201,321.678,300.361,321.678z"/>
					<path style="opacity:0.4;fill-rule:evenodd;clip-rule:evenodd;fill:#FFFFFF;" d="M312.694,321.678
						c1.161,0,2.102,0.941,2.102,2.101c0,1.161-0.941,2.102-2.102,2.102c-1.16,0-2.102-0.941-2.102-2.102
						C310.593,322.619,311.534,321.678,312.694,321.678z"/>
					<path style="opacity:0.4;fill-rule:evenodd;clip-rule:evenodd;fill:#FFFFFF;" d="M325.027,321.678
						c1.161,0,2.102,0.94,2.102,2.101s-0.941,2.102-2.102,2.102c-1.16,0-2.102-0.941-2.102-2.102
						C322.926,322.619,323.867,321.678,325.027,321.678z"/>
					<path style="opacity:0.4;fill-rule:evenodd;clip-rule:evenodd;fill:#FFFFFF;" d="M337.36,321.678
						c1.161,0,2.102,0.94,2.102,2.101s-0.941,2.102-2.102,2.102c-1.16,0-2.101-0.941-2.101-2.102S336.2,321.678,337.36,321.678z"/>
					<path style="opacity:0.4;fill-rule:evenodd;clip-rule:evenodd;fill:#FFFFFF;" d="M349.694,321.678
						c1.16,0,2.101,0.94,2.101,2.101s-0.941,2.102-2.101,2.102c-1.161,0-2.102-0.941-2.102-2.102S348.533,321.678,349.694,321.678z"
						/>
					<path style="opacity:0.4;fill-rule:evenodd;clip-rule:evenodd;fill:#FFFFFF;" d="M362.026,321.678
						c1.161,0,2.102,0.94,2.102,2.101c0,1.16-0.941,2.102-2.102,2.102c-1.16,0-2.101-0.941-2.101-2.102
						C359.925,322.619,360.866,321.678,362.026,321.678z"/>
					<path style="opacity:0.4;fill-rule:evenodd;clip-rule:evenodd;fill:#FFFFFF;" d="M294.195,312.713
						c1.161,0,2.102,0.941,2.102,2.101s-0.941,2.102-2.102,2.102c-1.161,0-2.101-0.941-2.101-2.102S293.034,312.713,294.195,312.713
						z"/>
					<path style="opacity:0.4;fill-rule:evenodd;clip-rule:evenodd;fill:#FFFFFF;" d="M306.528,312.713
						c1.16,0,2.101,0.941,2.101,2.101s-0.94,2.102-2.101,2.102c-1.161,0-2.102-0.941-2.102-2.102S305.367,312.713,306.528,312.713z"
						/>
					<path style="opacity:0.4;fill-rule:evenodd;clip-rule:evenodd;fill:#FFFFFF;" d="M318.861,312.713
						c1.16,0,2.102,0.941,2.102,2.101s-0.941,2.102-2.102,2.102c-1.161,0-2.102-0.941-2.102-2.102S317.7,312.713,318.861,312.713z"
						/>
					<path style="opacity:0.4;fill-rule:evenodd;clip-rule:evenodd;fill:#FFFFFF;" d="M331.194,312.713
						c1.161,0,2.102,0.941,2.102,2.101s-0.941,2.101-2.102,2.101c-1.16,0-2.102-0.941-2.102-2.101S330.033,312.713,331.194,312.713z
						"/>
					<path style="opacity:0.4;fill-rule:evenodd;clip-rule:evenodd;fill:#FFFFFF;" d="M343.527,312.713
						c1.16,0,2.102,0.94,2.102,2.101c0,1.16-0.941,2.101-2.102,2.101s-2.101-0.941-2.101-2.101S342.366,312.713,343.527,312.713z"/>
					<path style="opacity:0.4;fill-rule:evenodd;clip-rule:evenodd;fill:#FFFFFF;" d="M355.86,312.713
						c1.161,0,2.102,0.94,2.102,2.101c0,1.16-0.941,2.101-2.101,2.101c-1.161,0-2.102-0.941-2.102-2.101
						C353.759,313.653,354.699,312.713,355.86,312.713z"/>
					<path style="opacity:0.4;fill-rule:evenodd;clip-rule:evenodd;fill:#FFFFFF;" d="M288.029,303.462
						c1.16,0,2.101,0.941,2.101,2.102c0,1.16-0.941,2.101-2.101,2.101s-2.102-0.941-2.102-2.101
						C285.927,304.403,286.868,303.462,288.029,303.462z"/>
					<path style="opacity:0.4;fill-rule:evenodd;clip-rule:evenodd;fill:#FFFFFF;" d="M300.361,303.462
						c1.161,0,2.101,0.941,2.101,2.102c0,1.16-0.941,2.101-2.101,2.101c-1.161,0-2.102-0.941-2.102-2.101
						C298.26,304.403,299.201,303.462,300.361,303.462z"/>
					<path style="opacity:0.4;fill-rule:evenodd;clip-rule:evenodd;fill:#FFFFFF;" d="M312.694,303.462
						c1.161,0,2.102,0.941,2.102,2.102c0,1.16-0.941,2.101-2.102,2.101c-1.16,0-2.102-0.941-2.102-2.101
						C310.593,304.403,311.534,303.462,312.694,303.462z"/>
					<path style="opacity:0.4;fill-rule:evenodd;clip-rule:evenodd;fill:#FFFFFF;" d="M325.027,303.462
						c1.161,0,2.102,0.941,2.102,2.102c0,1.16-0.941,2.101-2.102,2.101c-1.16,0-2.102-0.941-2.102-2.101
						C322.926,304.403,323.867,303.462,325.027,303.462z"/>
					<path style="opacity:0.4;fill-rule:evenodd;clip-rule:evenodd;fill:#FFFFFF;" d="M337.36,303.462
						c1.161,0,2.102,0.941,2.102,2.102c0,1.161-0.941,2.101-2.102,2.101c-1.16,0-2.102-0.941-2.102-2.101
						C335.259,304.403,336.2,303.462,337.36,303.462z"/>
					<path style="opacity:0.4;fill-rule:evenodd;clip-rule:evenodd;fill:#FFFFFF;" d="M349.693,303.462
						c1.161,0,2.102,0.941,2.102,2.102c0,1.161-0.941,2.101-2.102,2.101c-1.16,0-2.101-0.941-2.101-2.101
						C347.592,304.403,348.533,303.462,349.693,303.462z"/>
					<path style="opacity:0.4;fill-rule:evenodd;clip-rule:evenodd;fill:#FFFFFF;" d="M362.026,303.462
						c1.161,0,2.102,0.941,2.102,2.102c0,1.161-0.941,2.101-2.102,2.101c-1.16,0-2.101-0.941-2.101-2.101
						C359.925,304.403,360.866,303.462,362.026,303.462z"/>
					<path style="opacity:0.4;fill-rule:evenodd;clip-rule:evenodd;fill:#FFFFFF;" d="M294.195,294.497
						c1.161,0,2.102,0.941,2.102,2.101c0,1.161-0.941,2.101-2.102,2.101c-1.161,0-2.101-0.941-2.101-2.101
						C292.093,295.438,293.034,294.497,294.195,294.497z"/>
					<path style="opacity:0.4;fill-rule:evenodd;clip-rule:evenodd;fill:#FFFFFF;" d="M306.528,294.497
						c1.16,0,2.101,0.941,2.101,2.101c0,1.161-0.94,2.101-2.101,2.101c-1.161,0-2.102-0.941-2.102-2.101
						C304.426,295.438,305.367,294.497,306.528,294.497z"/>
					<path style="opacity:0.4;fill-rule:evenodd;clip-rule:evenodd;fill:#FFFFFF;" d="M318.861,294.497
						c1.161,0,2.102,0.941,2.102,2.101c0,1.161-0.941,2.101-2.102,2.101c-1.161,0-2.102-0.941-2.102-2.101
						C316.759,295.438,317.7,294.497,318.861,294.497z"/>
					<path style="opacity:0.4;fill-rule:evenodd;clip-rule:evenodd;fill:#FFFFFF;" d="M331.194,294.497
						c1.161,0,2.101,0.941,2.101,2.101c0,1.161-0.941,2.101-2.101,2.101c-1.16,0-2.102-0.941-2.102-2.101
						C329.092,295.438,330.033,294.497,331.194,294.497z"/>
					<circle style="opacity:0.4;fill-rule:evenodd;clip-rule:evenodd;fill:#FFFFFF;" cx="343.527" cy="296.598" r="2.101"/>
					<path style="opacity:0.4;fill-rule:evenodd;clip-rule:evenodd;fill:#FFFFFF;" d="M355.86,294.497
						c1.161,0,2.102,0.941,2.102,2.101c0,1.161-0.941,2.102-2.102,2.102c-1.16,0-2.101-0.941-2.101-2.102
						C353.759,295.438,354.699,294.497,355.86,294.497z"/>
					<path style="opacity:0.4;fill-rule:evenodd;clip-rule:evenodd;fill:#FFFFFF;" d="M288.029,285.246
						c1.16,0,2.101,0.941,2.101,2.102c0,1.161-0.941,2.101-2.101,2.101s-2.102-0.94-2.102-2.101
						C285.927,286.188,286.868,285.246,288.029,285.246z"/>
					<path style="opacity:0.4;fill-rule:evenodd;clip-rule:evenodd;fill:#FFFFFF;" d="M300.361,285.246
						c1.161,0,2.101,0.941,2.101,2.102c0,1.161-0.941,2.101-2.101,2.101c-1.161,0-2.102-0.94-2.102-2.101
						C298.26,286.188,299.201,285.246,300.361,285.246z"/>
					<path style="opacity:0.4;fill-rule:evenodd;clip-rule:evenodd;fill:#FFFFFF;" d="M312.694,285.246
						c1.161,0,2.102,0.941,2.102,2.102c0,1.161-0.941,2.101-2.102,2.101c-1.16,0-2.102-0.94-2.102-2.101
						C310.593,286.187,311.534,285.246,312.694,285.246z"/>
					<path style="opacity:0.4;fill-rule:evenodd;clip-rule:evenodd;fill:#FFFFFF;" d="M325.027,285.246
						c1.161,0,2.102,0.941,2.102,2.102c0,1.161-0.941,2.101-2.102,2.101c-1.161,0-2.102-0.94-2.102-2.101
						C322.926,286.187,323.867,285.246,325.027,285.246z"/>
					<path style="opacity:0.4;fill-rule:evenodd;clip-rule:evenodd;fill:#FFFFFF;" d="M337.36,285.246
						c1.161,0,2.102,0.941,2.102,2.102c0,1.161-0.941,2.101-2.102,2.101c-1.16,0-2.102-0.94-2.102-2.101
						C335.259,286.187,336.2,285.246,337.36,285.246z"/>
					<path style="opacity:0.4;fill-rule:evenodd;clip-rule:evenodd;fill:#FFFFFF;" d="M349.693,285.246
						c1.161,0,2.102,0.941,2.102,2.102c0,1.161-0.941,2.101-2.102,2.101c-1.16,0-2.101-0.94-2.101-2.101
						C347.592,286.187,348.533,285.246,349.693,285.246z"/>
					<path style="opacity:0.4;fill-rule:evenodd;clip-rule:evenodd;fill:#FFFFFF;" d="M362.026,285.246
						c1.161,0,2.102,0.941,2.102,2.102c0,1.161-0.941,2.101-2.102,2.101c-1.16,0-2.101-0.94-2.101-2.101
						C359.925,286.187,360.866,285.246,362.026,285.246z"/>
					<path style="opacity:0.4;fill-rule:evenodd;clip-rule:evenodd;fill:#FFFFFF;" d="M294.195,276.281
						c1.161,0,2.101,0.941,2.101,2.101c0,1.161-0.941,2.102-2.101,2.102c-1.161,0-2.101-0.941-2.101-2.102
						C292.093,277.221,293.034,276.281,294.195,276.281z"/>
					<path style="opacity:0.4;fill-rule:evenodd;clip-rule:evenodd;fill:#FFFFFF;" d="M306.528,276.281
						c1.16,0,2.101,0.941,2.101,2.101c0,1.161-0.94,2.101-2.101,2.101c-1.161,0-2.102-0.941-2.102-2.101
						C304.426,277.221,305.367,276.281,306.528,276.281z"/>
					<path style="opacity:0.4;fill-rule:evenodd;clip-rule:evenodd;fill:#FFFFFF;" d="M318.861,276.281
						c1.161,0,2.102,0.941,2.102,2.101c0,1.161-0.941,2.101-2.102,2.101c-1.16,0-2.101-0.941-2.101-2.101
						C316.759,277.221,317.7,276.281,318.861,276.281z"/>
					<path style="opacity:0.4;fill-rule:evenodd;clip-rule:evenodd;fill:#FFFFFF;" d="M331.194,276.281
						c1.161,0,2.101,0.94,2.101,2.101s-0.941,2.101-2.101,2.101c-1.161,0-2.102-0.941-2.102-2.101S330.033,276.281,331.194,276.281z
						"/>
					<circle style="opacity:0.4;fill-rule:evenodd;clip-rule:evenodd;fill:#FFFFFF;" cx="343.527" cy="278.382" r="2.101"/>
					<path style="opacity:0.4;fill-rule:evenodd;clip-rule:evenodd;fill:#FFFFFF;" d="M355.86,276.281
						c1.161,0,2.102,0.94,2.102,2.101c0,1.161-0.941,2.101-2.102,2.101c-1.16,0-2.101-0.941-2.101-2.101
						C353.759,277.221,354.699,276.281,355.86,276.281z"/>
					<path style="opacity:0.4;fill-rule:evenodd;clip-rule:evenodd;fill:#FFFFFF;" d="M288.029,267.03
						c1.16,0,2.101,0.941,2.101,2.102c0,1.16-0.941,2.101-2.101,2.101c-1.161,0-2.102-0.941-2.102-2.101
						C285.927,267.971,286.868,267.03,288.029,267.03z"/>
					<path style="opacity:0.4;fill-rule:evenodd;clip-rule:evenodd;fill:#FFFFFF;" d="M300.361,267.03
						c1.161,0,2.101,0.941,2.101,2.102c0,1.16-0.941,2.101-2.101,2.101c-1.161,0-2.102-0.941-2.102-2.101
						C298.26,267.971,299.201,267.03,300.361,267.03z"/>
					<path style="opacity:0.4;fill-rule:evenodd;clip-rule:evenodd;fill:#FFFFFF;" d="M312.694,267.03
						c1.161,0,2.102,0.941,2.102,2.102c0,1.16-0.941,2.101-2.102,2.101c-1.16,0-2.102-0.941-2.102-2.101
						C310.593,267.971,311.534,267.03,312.694,267.03z"/>
					<path style="opacity:0.4;fill-rule:evenodd;clip-rule:evenodd;fill:#FFFFFF;" d="M325.027,267.03
						c1.161,0,2.102,0.941,2.102,2.102c0,1.16-0.941,2.101-2.102,2.101c-1.161,0-2.102-0.941-2.102-2.101
						C322.926,267.971,323.867,267.03,325.027,267.03z"/>
					<path style="opacity:0.4;fill-rule:evenodd;clip-rule:evenodd;fill:#FFFFFF;" d="M337.36,267.03
						c1.161,0,2.102,0.941,2.102,2.102c0,1.16-0.941,2.101-2.102,2.101c-1.16,0-2.102-0.941-2.102-2.101
						C335.259,267.971,336.2,267.03,337.36,267.03z"/>
					<path style="opacity:0.4;fill-rule:evenodd;clip-rule:evenodd;fill:#FFFFFF;" d="M349.693,267.03
						c1.161,0,2.102,0.941,2.102,2.102c0,1.16-0.941,2.101-2.102,2.101c-1.16,0-2.101-0.941-2.101-2.101
						C347.592,267.971,348.533,267.03,349.693,267.03z"/>
					<path style="opacity:0.4;fill-rule:evenodd;clip-rule:evenodd;fill:#FFFFFF;" d="M362.026,267.03
						c1.16,0,2.102,0.941,2.102,2.102c0,1.16-0.941,2.101-2.102,2.101s-2.101-0.941-2.101-2.101
						C359.925,267.971,360.866,267.03,362.026,267.03z"/>
				</g>
			</g>
		</g>
		<path style="fill-rule:evenodd;clip-rule:evenodd;fill:#F08156;" d="M211.568,178.064c6.015,14.756,8.263,25.508,10.158,39.023
			c1.382,9.86-8.069,11.54-13.202,4.486c-8.536-11.732-12.898-22.975-17.125-35.889C186.37,170.316,205.801,163.916,211.568,178.064
			z"/>
		<path style="fill-rule:evenodd;clip-rule:evenodd;fill:#F08156;" d="M205.489,187.494c4.111,8.496,4.248,16.307,3.974,23.158
			c-0.274,6.851-12.47,2.741-12.47,2.741S197.953,194.483,205.489,187.494z"/>
		<path style="fill-rule:evenodd;clip-rule:evenodd;fill:#184F96;" d="M298.92,185.413c-8.499,7.439-23.132,20.835-30.19,29.66
			c-5.649,7.064,2.983,13.181,10.522,8.177c12.845-8.527,24.342-14.393,35.676-27.271
			C324.632,184.953,309.242,176.378,298.92,185.413z"/>
		<path style="fill-rule:evenodd;clip-rule:evenodd;fill:#002E6C;" d="M293.374,214.153c5.976-4.265,10.6-7.564,15.675-12.225
			c-1.372-5.393-2.945-8.932-5.694-13.057C297.292,199.639,294.782,204.667,293.374,214.153z"/>
		<path style="fill-rule:evenodd;clip-rule:evenodd;fill:#184F96;" d="M294.788,267.731c-7.366-2.204,8.84-30.176,6.66-37.165
			c-1.273-4.083-6.823-11.306-6.076-18.018c0.536-4.817,2.999-14.342,8.446-30.114c12.52-3.108,25.224-4.795,45.308,2.495
			c4.287,23.146-4.491,35.648-4.026,53.874c0.198,7.739,10.892,21.715,5.826,25.946C339.079,274.643,310.04,272.297,294.788,267.731
			z"/>
		<path style="fill-rule:evenodd;clip-rule:evenodd;fill:#BA8B80;" d="M313.489,180.469c4.741-1.107,8.962-1.686,16.89-0.414
			c-1.989,5.43-10.041,13.164-14.915,15.89C314.211,191.987,313.259,185.174,313.489,180.469z"/>
		<path style="fill-rule:evenodd;clip-rule:evenodd;fill:#BA8B80;" d="M315.065,165.144l13.479,0.05l-0.06,16.176
			c-0.025,6.723-13.503,6.272-13.479-0.05L315.065,165.144z"/>
		<path style="fill-rule:evenodd;clip-rule:evenodd;fill:#184F96;" d="M347.881,213.866c2.378,8.559,8.187,15.422,13.171,21.746
			c5.598,7.103,13.447,7.438,11.546-1.408c-3.38-15.733-12.284-41.229-21.423-48.15
			C343.501,180.244,344.008,199.928,347.881,213.866z"/>
		<path style="fill-rule:evenodd;clip-rule:evenodd;fill:#947169;" d="M315.038,172.284l13.479,0.05l-0.03,8.217
			c-3.44,2.148-10.734,1.593-13.462-4.588L315.038,172.284z"/>
		<path style="fill-rule:evenodd;clip-rule:evenodd;fill:#BA8B80;" d="M325.084,131.375c-25.845-3.747-26.05,43.496-6.868,44.957
			C338.725,177.894,353.175,135.448,325.084,131.375z"/>
		<g>
			<path style="fill-rule:evenodd;clip-rule:evenodd;fill:#00204A;" d="M310.809,150.646c0.736,0.075,1.269,0.751,1.191,1.51
				c-0.078,0.758-0.737,1.312-1.473,1.237c-0.736-0.076-1.269-0.751-1.192-1.51C309.414,151.124,310.074,150.571,310.809,150.646z"
				/>
			<path style="fill-rule:evenodd;clip-rule:evenodd;fill:#00204A;" d="M323.75,152.092c0.736,0.075,1.269,0.751,1.191,1.51
				c-0.078,0.758-0.737,1.312-1.473,1.237c-0.736-0.075-1.269-0.751-1.192-1.51C322.355,152.57,323.014,152.016,323.75,152.092z"/>
		</g>
		<path style="fill-rule:evenodd;clip-rule:evenodd;fill:#947169;" d="M316.564,161.295c-3.029-1.185-1.979-3.154-0.742-5.761
			C313.469,157.419,311.956,160.568,316.564,161.295z"/>
		<path style="fill-rule:evenodd;clip-rule:evenodd;fill:#947169;" d="M311.123,163.357c2.647,0.091,6.682,0.452,12.021,1.005
			C320.418,171.188,312.535,169.736,311.123,163.357z"/>
		<path style="fill-rule:evenodd;clip-rule:evenodd;fill:#002E6C;" d="M335.249,147.351c-0.195,6.235,2.533,10.716,4.481,11.106
			C341.679,158.846,343.822,147.935,335.249,147.351z"/>
		<path style="fill-rule:evenodd;clip-rule:evenodd;fill:#BA8B80;" d="M341.967,154.339c-1.102-0.406-2.702,1.18-3.573,3.543
			c-0.871,2.363-0.683,4.608,0.42,5.014c1.103,0.406,2.703-1.18,3.573-3.542C343.258,156.99,343.07,154.745,341.967,154.339z"/>
		<path style="fill-rule:evenodd;clip-rule:evenodd;fill:#002E6C;" d="M322.695,148.805c-0.954,0.034-1.415-1.179-0.216-1.418
			c1.73-0.344,5.072,0.578,6.021,1.637c0.602,0.672,0.148,1.269-0.673,0.891C326.424,149.268,323.355,148.782,322.695,148.805z"/>
		<path style="fill-rule:evenodd;clip-rule:evenodd;fill:#002E6C;" d="M313.849,147.89c0.839,0.281,1.555-0.783,0.546-1.316
			c-1.455-0.768-4.265-0.761-5.77,0.094c-0.745,0.423-0.441,1.209,0.376,1.003C310.149,147.381,313.03,147.616,313.849,147.89z"/>
		<path style="fill-rule:evenodd;clip-rule:evenodd;fill:#002E6C;" d="M181.112,438.119c6.865,4.455,24.579,6.745,33.14,5.087
			c4.794-0.929,5.114-7.847-1.176-10.509c-10.854-4.592-20.981-7.799-32.517-10.305
			C179.552,427.949,178.066,436.142,181.112,438.119z"/>
		<path style="fill-rule:evenodd;clip-rule:evenodd;fill:#4F91E8;" d="M202.185,428.711c-4.235,2.07-17.732,2.732-23.33-1.283
			c-2.309-47.291-0.15-61.123,1.268-86.421c0.864-15.415,23.073-13.346,22.461,3.21
			C201.363,377.248,203.371,416.725,202.185,428.711z"/>
		<path style="fill-rule:evenodd;clip-rule:evenodd;fill:#4F91E8;" d="M178,247.415c1.829,11.705,2.561,24.806,0.073,37.352
			c-1.725,20.861-7.046,45.154-8.769,66.015c-0.859,10.398-23.207,10.576-23.217-2.088c-0.029-33.027-5.391-65.421,1.123-102.617
			C156.224,246.076,168.985,247.415,178,247.415z"/>
		
			<path style="fill-rule:evenodd;clip-rule:evenodd;fill:none;stroke:#66A1ED;stroke-width:1.9199;stroke-linecap:round;stroke-linejoin:round;stroke-miterlimit:22.9256;" d="
			M169.136,259.782c-2.403,3.675-9.895,9.894-12.863,11.874"/>
		<path style="fill-rule:evenodd;clip-rule:evenodd;fill:#4F91E8;" d="M174.741,247.415c-1.829,11.705-2.136,28.636,0.353,41.182
			c1.379,20.972,4.035,37.262,5.414,58.234c0.685,10.409,21.816,11.587,21.86-1.078c0.116-33.033,2.953-61.398,0.605-98.653
			C193.563,247.205,184.152,247.31,174.741,247.415z"/>
		<g>
			<defs>
				<path id="SVGID_00000059277305627728137870000012392490630277900434_" d="M174.741,247.415
					c-1.829,11.705-2.136,28.636,0.353,41.182c1.379,20.972,4.035,37.262,5.414,58.234c0.685,10.409,21.816,11.587,21.86-1.078
					c0.116-33.033,2.953-61.398,0.605-98.653C193.563,247.205,184.152,247.31,174.741,247.415z"/>
			</defs>
			<clipPath id="SVGID_00000033337232458713214910000002853817326208673971_">
				<use xlink:href="#SVGID_00000059277305627728137870000012392490630277900434_"  style="overflow:visible;"/>
			</clipPath>
			<g style="clip-path:url(#SVGID_00000033337232458713214910000002853817326208673971_);">
				
					<path style="fill-rule:evenodd;clip-rule:evenodd;fill:none;stroke:#66A1ED;stroke-width:1.9199;stroke-linecap:round;stroke-linejoin:round;stroke-miterlimit:22.9256;" d="
					M194.721,256.814c2.403,3.675,9.895,9.894,12.863,11.874"/>
			</g>
		</g>
		
			<path style="fill-rule:evenodd;clip-rule:evenodd;fill:none;stroke:#66A1ED;stroke-width:1.9199;stroke-linecap:round;stroke-linejoin:round;stroke-miterlimit:22.9256;" d="
			M184.454,259.055c-0.207,4.547,0.414,14.779-1.653,15.089c-2.067,0.31-4.547,0.413-4.547,0.413"/>
		
			<path style="fill-rule:evenodd;clip-rule:evenodd;fill:none;stroke:#66A1ED;stroke-width:1.9199;stroke-linecap:round;stroke-linejoin:round;stroke-miterlimit:22.9256;" d="
			M176.686,300.854c2.853,17.118,6.023,34.237,6.658,42.163c0.634,7.925-3.804,52.941-1.585,79.57"/>
		<path style="opacity:0.5;fill-rule:evenodd;clip-rule:evenodd;fill:#1F4C87;" d="M177.491,314.838
			c1.848-10.935,3.248-21.241,2.291-40.002c-1.121,11.133-2.733,21.648-3.887,28.404
			C176.402,306.341,176.978,310.078,177.491,314.838z"/>
		<path style="fill-rule:evenodd;clip-rule:evenodd;fill:#002E6C;" d="M144.128,443.701c6.557,4.898,24.081,8.349,32.733,7.258
			c4.844-0.611,5.62-7.493-0.482-10.563c-10.528-5.297-20.421-9.164-31.767-12.425C143.241,433.451,141.219,441.528,144.128,443.701
			z"/>
		<path style="fill-rule:evenodd;clip-rule:evenodd;fill:#4F91E8;" d="M164.765,434.625c-4.698,3.182-14.182,3.518-23.128-0.501
			c-1.474-37.647,3.129-67.193,5.569-92.491c1.487-15.416,24.268-15.436,23.003,1.257
			C167.686,376.185,166.434,422.638,164.765,434.625z"/>
		
			<path style="fill-rule:evenodd;clip-rule:evenodd;fill:none;stroke:#66A1ED;stroke-width:1.9199;stroke-linecap:round;stroke-linejoin:round;stroke-miterlimit:22.9256;" d="
			M154.812,255.204c-4.121,23.775-4.755,86.861-6.023,97.005c-1.268,10.144-3.804,67.523-3.487,76.716"/>
		<path style="fill-rule:evenodd;clip-rule:evenodd;fill:#E07348;" d="M206.091,211.504c3.289,0.137,8.15-0.175,9.795,1.332
			c1.644,1.507-2.495-5.509-9.787-4.838C204.592,208.821,204.31,210.408,206.091,211.504z"/>
		<path style="fill-rule:evenodd;clip-rule:evenodd;fill:#FFA37F;" d="M208.146,172.486c1.304,20.048-1.105,35.921-3.001,49.742
			c-1.533,11.183,3.64,20.062,0.655,36.187c-19.957,7.727-41.976,8.174-61.534-1.445c-3.531-5.128,5.755-18.105,5.568-30.427
			c-0.229-15.013-10.866-32.83-9.441-53.061C161.279,160.116,200.208,164.886,208.146,172.486z"/>
		<path style="fill-rule:evenodd;clip-rule:evenodd;fill:#FBC9BE;" d="M158.603,217.229c-5.371-1.898-9.912-4.126-9.109-5.284
			c1.233-1.782,9.046,2.67,13.233,2.673c-1.4-0.752-3.711-2.149-3.338-3.073c1.288-3.186,16.263,7.74,14.634,12.078
			c-2.72,7.24-26.29,0.356-25.395-2.6c0.317-1.046,2.419,0.739,7.463,1.237c-4.908-1.25-10.357-2.898-9.571-4.88
			c0.436-1.1,7.029,1.945,10.993,2.514c-4.198-1.62-11.798-4.253-10.997-5.53C147.557,212.701,154.12,216.549,158.603,217.229z"/>
		<path style="fill-rule:evenodd;clip-rule:evenodd;fill:#FBC9BE;" d="M175.584,133.251L175.584,133.251
			c5.054-0.165,9.322,3.757,9.484,8.716l0.837,25.589c0.138,4.221,1.975,11.918-4.242,12.54c-9.178,0.919-13.974-6.98-14.136-11.939
			l-0.837-25.589C166.527,137.609,170.53,133.417,175.584,133.251z"/>
		<path style="fill-rule:evenodd;clip-rule:evenodd;fill:#D9ABA1;" d="M185.755,162.977l-18.674-8.444l0.445,13.623
			C172.826,170.849,182.128,169.411,185.755,162.977z"/>
		<path style="fill-rule:evenodd;clip-rule:evenodd;fill:#FBC9BE;" d="M168.675,112.029c16.537-4.634,23.902,10.274,25.754,25.472
			c1.488,12.205,1.005,23.545-6.976,26.774c-9.769,3.953-24.62-2.491-28.253-11.228
			C152.901,137.902,150.817,117.033,168.675,112.029z"/>
		<path style="fill-rule:evenodd;clip-rule:evenodd;fill:#233147;" d="M182.878,131.831c-1.322,0.366-2.096-1.354-0.842-1.91
			c2.37-1.05,5.555-1.351,7.766,0.227c1.114,0.795,0.466,2.003-0.824,1.547C187.358,131.125,184.517,131.377,182.878,131.831z"/>
		<path style="fill-rule:evenodd;clip-rule:evenodd;fill:#D9ABA1;" d="M179.886,149.783c3.986-1.066,2.94-3.697,1.75-7.156
			C184.335,145.336,185.798,149.519,179.886,149.783z"/>
		<path style="fill-rule:evenodd;clip-rule:evenodd;fill:#D9ABA1;" d="M189.434,149.21c-2.94,1.887-9.145,3.863-15.308,3.688
			C177.844,155.311,188.036,152.823,189.434,149.21z"/>
		<path style="fill-rule:evenodd;clip-rule:evenodd;fill:#233147;" d="M173.842,131.975c1.372,0.023,1.33,1.916-0.032,2.087
			c-1.163,0.145-3.756,0.945-5.825,2.309c-1.141,0.753-1.924,0.004-1.208-1.162C168.2,132.894,171.251,131.932,173.842,131.975z"/>
		<path style="fill-rule:evenodd;clip-rule:evenodd;fill:#D9ABA1;" d="M186.864,153.725c-2.11,0.765-5.185,1.725-7.549,2.115
			C180.779,157.185,186.352,155.844,186.864,153.725z"/>
		<g>
			<path style="fill-rule:evenodd;clip-rule:evenodd;fill:#00204A;" d="M173.072,139.965c0.772-0.216,1.579,0.253,1.802,1.049
				c0.223,0.796-0.222,1.617-0.994,1.833c-0.772,0.216-1.579-0.253-1.802-1.049C171.855,141.002,172.3,140.181,173.072,139.965z"/>
			<path style="fill-rule:evenodd;clip-rule:evenodd;fill:#00204A;" d="M186.404,136.575c0.772-0.216,1.579,0.253,1.802,1.049
				c0.223,0.796-0.222,1.616-0.994,1.833c-0.772,0.217-1.579-0.253-1.802-1.049C185.187,137.611,185.632,136.791,186.404,136.575z"
				/>
		</g>
		<path style="fill-rule:evenodd;clip-rule:evenodd;fill:#F08156;" d="M177.062,219.568c3.424,9.342-5.793,13.951-12.508,8.387
			c-12.602-10.443-20.087-21.076-26.363-33.409c-10.937-21.492,9.031-33.951,23.763-5.699
			C168.38,201.17,170.953,202.901,177.062,219.568z"/>
		<path style="fill-rule:evenodd;clip-rule:evenodd;fill:#E07348;" d="M168.691,200.643c-2.604,2.604-5.817,10.557-5.406,18.094
			c4.796-3.7,8.237-13.179,8.237-13.179L168.691,200.643z"/>
		<path style="opacity:0.08;fill-rule:evenodd;clip-rule:evenodd;fill:#FF5765;" d="M324.943,156.654
			c2.324,0.51,3.997,2.019,3.737,3.369c-0.261,1.35-2.357,2.031-4.681,1.52c-2.324-0.51-3.998-2.019-3.737-3.369
			C320.523,156.824,322.619,156.143,324.943,156.654z"/>
		<path style="opacity:0.08;fill-rule:evenodd;clip-rule:evenodd;fill:#FF5765;" d="M309.139,155.351
			c-2.187,0.103-3.956,1.3-3.953,2.674c0.003,1.373,1.779,2.404,3.965,2.301c2.186-0.103,3.956-1.3,3.952-2.674
			C313.101,156.279,311.325,155.249,309.139,155.351z"/>
		<path style="opacity:0.08;fill-rule:evenodd;clip-rule:evenodd;fill:#FF5765;" d="M188.796,140.489
			c2.328-0.295,4.382,0.553,4.586,1.893c0.204,1.34-1.518,2.666-3.846,2.961c-2.328,0.295-4.382-0.553-4.586-1.894
			C184.746,142.109,186.469,140.784,188.796,140.489z"/>
		<path style="opacity:0.08;fill-rule:evenodd;clip-rule:evenodd;fill:#FF5765;" d="M171.601,145.442
			c-2.218,0.766-3.684,2.435-3.274,3.727c0.41,1.292,2.541,1.719,4.759,0.953s3.685-2.435,3.274-3.728
			C175.951,145.103,173.819,144.676,171.601,145.442z"/>
		<path style="fill-rule:evenodd;clip-rule:evenodd;fill:#184F96;" d="M251.529,187.904c-0.286,1.944,2.161,3.913,2.979,5.986
			c4.633,11.739,8.023,19.541,12.923,27.998c4.449,7.678,14.687,0.723,11.79-7.674c-3.577-10.367-9.61-17.669-14.511-26.909
			c-0.88-1.658-0.685-4.782-2.353-5.348C258.611,180.686,252.015,184.61,251.529,187.904z"/>
		<path style="fill-rule:evenodd;clip-rule:evenodd;fill:#184F96;" d="M383.758,200.011c2.449,3.014-1.126,9.749-1.973,14.135
			c-1.556,8.061-2.799,15.287-6.668,22.952c-4.09,8.102-14.997,2.979-12.738-5.781c1.956-7.585,4.391-13.963,6.724-20.594
			c1.519-4.319,0.576-12.548,5.755-13.977C377.713,195.958,381.283,196.965,383.758,200.011z"/>
		<path style="fill-rule:evenodd;clip-rule:evenodd;fill:#FFFFFF;" d="M312.801,163.624c2.134,0.129,4.887,0.373,8.233,0.708
			C320.785,165.713,312.514,164.79,312.801,163.624z"/>
		<path style="fill-rule:evenodd;clip-rule:evenodd;fill:#F08156;" d="M167.628,212.986c10.302-0.297,41.143-2.771,47.634-0.685
			c9.478,3.046,7.743,14.682-2.133,15.941c-5.701,0.727-35.056,0.672-46.654-1.189C165.582,222.09,166.085,216.855,167.628,212.986z
			"/>
		<path style="fill-rule:evenodd;clip-rule:evenodd;fill:#E07348;" d="M186.902,211.923c-1.476,5.413-5.473,12.458-10.27,16.025
			C174.011,215.695,175.135,211.745,186.902,211.923z"/>
		<path style="fill-rule:evenodd;clip-rule:evenodd;fill:#66A1ED;" d="M202.923,428.563c-4.234,2.07-18.879,3.204-24.477-0.811
			c-0.169-3.452-0.312-6.721-0.436-9.835c6.202,3.099,20.371,2.164,25.292,0.433C203.269,422.671,203.159,426.167,202.923,428.563z"
			/>
		<path style="fill-rule:evenodd;clip-rule:evenodd;fill:#66A1ED;" d="M165.515,435.328c-4.234,2.07-18.879,3.204-24.477-0.811
			c-0.169-3.452-0.074-6.642-0.197-9.755c6.202,3.099,20.132,2.085,25.053,0.353C165.861,429.435,165.752,432.932,165.515,435.328z"
			/>
		<path style="fill-rule:evenodd;clip-rule:evenodd;fill:#002E6C;" d="M276.125,206.832c3.31,3.934,4.927,8.316,5.892,11.909
			C282.912,213.482,280.69,209.169,276.125,206.832z"/>
		<path style="fill-rule:evenodd;clip-rule:evenodd;fill:#002E6C;" d="M367.121,216.297c-3.129,4.08-3.941,11.386-4.741,15.02
			C360.373,226.104,362.666,218.839,367.121,216.297z"/>
		<path style="fill-rule:evenodd;clip-rule:evenodd;fill:#002E6C;" d="M345.72,205.261c0.241,1.989,1.329,6.381,2.544,9.881
			c-0.233,1.177-0.354,1.75-0.595,2.911C345.497,214.719,345.044,209.475,345.72,205.261z"/>
		<path style="fill-rule:evenodd;clip-rule:evenodd;fill:#002E6C;" d="M311.479,131.179c-2.338,9.547,20.458,24.161,32.928,22.991
			C356.876,153.001,339.73,123.191,311.479,131.179z"/>
		<path style="fill-rule:evenodd;clip-rule:evenodd;fill:#002E6C;" d="M305.079,149.194c2.226-7.624,6.552-11.894,12.562-13.873
			c-0.378-2.316-2.338-5.011-2.338-5.011S304.964,135.038,305.079,149.194z"/>
		<g>
			<g>
				<path style="fill-rule:evenodd;clip-rule:evenodd;fill:#184F96;" d="M156.807,119.574c14.827,13.592,23.753,1.337,31.694,4.276
					c4.897,1.812,4.999,9.46,6.008,13.973c1.086-2.29,2.963-12.099,0.149-14.944c-3.087-3.121,2.795-13.677-10.574-12.312
					C178.59,111.127,162.675,101.246,156.807,119.574z"/>
				<path style="fill-rule:evenodd;clip-rule:evenodd;fill:#184F96;" d="M163.085,115.489c4.52,8.397,0.995,12.332-2.882,15.666
					c-3.763,3.236,4.12,14.938-3.328,16.201c-2.825-4.138-10.878-19.106-5.369-22.181
					C154.382,123.571,150.356,113.632,163.085,115.489z"/>
			</g>
			<path style="fill-rule:evenodd;clip-rule:evenodd;fill:#2F69B5;" d="M190.506,122.899c-6.771-8.433-22.494,6.181-29.987-6.184
				c8.67-13.924,22.861,0.041,26.881-3.89c-3.638,5.272-19.208-1.566-24.296,3.632C166.524,120.862,187.952,111.827,190.506,122.899
				z"/>
			<path style="fill-rule:evenodd;clip-rule:evenodd;fill:#2F69B5;" d="M160.793,116.442c-7.783,0.68-4.112,6.684-7.137,8.938
				c3.012-0.552,5.322-8.393,8.926-7.396C162.72,117.294,162.642,116.278,160.793,116.442z"/>
		</g>
		<path style="fill-rule:evenodd;clip-rule:evenodd;fill:#FBC9BE;" d="M154.354,142.161c1.187-0.601,3.193,0.975,4.481,3.52
			c1.287,2.544,1.368,5.094,0.181,5.694c-1.187,0.601-3.193-0.975-4.481-3.519C153.247,145.311,153.166,142.762,154.354,142.161z"/>
		<path style="fill-rule:evenodd;clip-rule:evenodd;fill:#043A80;" d="M345.491,150.469c-12.849,3.084-30.707-12.848-32.249-18.373
			C314.188,133.203,331.511,145.175,345.491,150.469z"/>
		<path style="fill-rule:evenodd;clip-rule:evenodd;fill:#043A80;" d="M302.578,144.944c-1.146-6.042,3.072-11.431,6.938-12.334
			C307.08,134.624,303.216,140.531,302.578,144.944z"/>
		<path style="fill-rule:evenodd;clip-rule:evenodd;fill:#D9ABA1;" d="M194.103,152.047c0.4-2.548,0.352-3.632-0.99-3.53
			c-2.305-0.015-4.16,9.304-6.717,12.952c-4.091-0.248-5.914-3.954-6.898-3.561c-3.148,1.22,3.879,17.334,7.041,19.557
			c6.949,4.884,16.994-21.982,14.023-21.861c-0.745,0.03-0.935,2.484-3.047,6.397c-0.988-0.901-1.873-0.255-3.176-0.791
			c1.156-4.646,3.329-11.822,1.727-11.905C195.121,149.286,194.552,150.033,194.103,152.047z"/>
		<path style="fill-rule:evenodd;clip-rule:evenodd;fill:#FBC9BE;" d="M191.74,160.255c1.631-5.838,3.127-11.154,1.629-11.163
			c-2.305-0.015-4.032,10.837-6.589,14.485c-4.091-0.248-5.978-5.295-6.962-4.902c-2.893,1.156,4.9,16.695,8.063,18.918
			c6.949,4.885,15.834-21.796,12.714-22.824c-1.104-0.364-0.285,1.678-2.935,6.375c1.913-5.038,3.149-11.121,0.942-11.649
			c-1.224-0.292-1.944,7.641-3.872,11.44c1.156-4.646,3.51-12.875,1.908-12.958C194.551,147.868,193.889,155.936,191.74,160.255z"/>
		<path style="fill-rule:evenodd;clip-rule:evenodd;fill:#F08156;" d="M182.716,174.507c-4.02,9.49-19.057,39.129-19.472,45.934
			c-0.606,9.936,11.56,12.734,16.321,3.991c2.748-5.047,14.194-34.406,16.675-45.888
			C191.941,175.91,186.881,174.475,182.716,174.507z"/>
		<path style="fill-rule:evenodd;clip-rule:evenodd;fill:#FFAF8F;" d="M315.025,175.964c-1.279,2.171-2.191,3.029-3.47,5.199
			c-0.116,7.793,1.929,11.981,3.91,14.782C314.979,191.787,315.172,183.184,315.025,175.964z"/>
		<path style="fill-rule:evenodd;clip-rule:evenodd;fill:#FFAF8F;" d="M328.63,174.835c0.82,2.094,1.815,4.224,2.205,5.986
			c-2.552,6.206-8.371,13.415-15.371,15.123C321.251,191.904,326.5,183.095,328.63,174.835z"/>
		<path style="fill-rule:evenodd;clip-rule:evenodd;fill:#FFAF8F;" d="M315.025,175.964c-2.838,2.705-4.599,4.975-6.886,8.858
			c2.366-0.863,5.063-2.258,6.955-2.001C315.244,180.296,314.797,179.415,315.025,175.964z"/>
		<path style="fill-rule:evenodd;clip-rule:evenodd;fill:#FFAF8F;" d="M328.63,174.835c2.789,4.384,5.124,8.011,5.903,12.792
			c-3.84-2.482-6.044-3.213-9.066-4.509C326.789,180.475,327.776,177.922,328.63,174.835z"/>
		<path style="fill-rule:evenodd;clip-rule:evenodd;fill:#001E45;" d="M144.128,443.701c6.557,4.897,24.081,8.349,32.733,7.258
			c2.145-0.27,3.491-1.771,3.797-3.625c-0.675,0.609-1.56,1.029-2.63,1.163c-9.317,1.175-28.189-2.542-35.25-7.816
			c-0.021-0.016-0.041-0.033-0.061-0.049C142.877,442,143.306,443.087,144.128,443.701z"/>
		<path style="fill-rule:evenodd;clip-rule:evenodd;fill:#001E45;" d="M181.112,438.119c6.865,4.455,24.579,6.745,33.14,5.086
			c2.122-0.411,3.367-1.997,3.55-3.867c-0.634,0.652-1.489,1.129-2.548,1.334c-9.219,1.785-28.295-0.68-35.688-5.478
			c-0.022-0.014-0.043-0.03-0.064-0.045C179.752,436.503,180.251,437.56,181.112,438.119z"/>
		<path style="fill-rule:evenodd;clip-rule:evenodd;fill:#0C3D7D;" d="M349.026,445.382c-4.37,3.982-22.663,7.252-30.768,6.065
			c-1.98-0.29-3.145-1.666-3.349-3.353c0.575,0.51,1.33,0.868,2.252,1.004c8.583,1.258,27.955-2.206,32.583-6.422
			c0.245-0.223,0.454-0.492,0.633-0.8C350.232,443.405,349.826,444.653,349.026,445.382z"/>
		<path style="fill-rule:evenodd;clip-rule:evenodd;fill:#0C3D7D;" d="M318.166,438.509c-4.55,3.775-22.975,6.191-31.016,4.629
			c-1.964-0.382-3.064-1.81-3.19-3.506c0.551,0.537,1.288,0.93,2.203,1.108c8.515,1.655,28.028-0.905,32.846-4.902
			c0.255-0.211,0.477-0.47,0.669-0.77C319.463,436.589,318.999,437.818,318.166,438.509z"/>
		<path style="fill-rule:evenodd;clip-rule:evenodd;fill:#BA8B80;" d="M388.595,191.516c5.472-1.902,10.1-4.143,9.29-5.325
			c-1.245-1.818-12.27,3.402-16.528,3.382c-0.452-2.858,2.679-4.761,2.218-6.03c-1.046-2.875-9.317,5.958-8.927,14.109
			c0.099,2.071,2.667,4.016,6.884,3.731c7.769-0.525,17.768-3.996,17.186-5.957c-0.316-1.064-2.464,0.738-7.595,1.219
			c4.997-1.245,10.547-2.893,9.758-4.912c-0.438-1.121-7.158,1.941-11.191,2.498c4.277-1.625,12.019-4.263,11.211-5.566
			C399.85,186.971,393.157,190.849,388.595,191.516z"/>
		<path style="fill-rule:evenodd;clip-rule:evenodd;fill:#BA8B80;" d="M246.365,178.105c-5.706-1.002-10.633-2.475-10.023-3.77
			c0.938-1.994,12.657,1.209,16.857,0.51c-0.011-2.894-4.003-4.33-3.154-5.412c1.684-2.147,10.102,4.674,11.452,11.509
			c0.837,4.237-1.768,4.887-6.608,5.616c-7.7,1.161-18.152-0.944-17.891-2.973c0.142-1.102,2.55,0.335,7.691-0.011
			c-5.132-0.43-10.873-1.169-10.418-3.288c0.253-1.176,7.376,0.771,11.446,0.676c-4.482-0.92-12.546-2.285-11.956-3.701
			C234.527,175.418,241.755,178.176,246.365,178.105z"/>
		<path style="fill-rule:evenodd;clip-rule:evenodd;fill:#9ABBE6;" d="M293.334,63.712l12.157,2.934
			c1.374-5.302,4.302-7.319,8.65-6.269c3.904,0.942,5.805,3.185,4.905,6.912c-2.056,8.518-13.163,6.683-16.461,20.348l11.802,2.849
			c2.506-10.382,16.599-8.858,19.833-22.257c2.399-9.938-3.617-17.306-15.507-20.176C306.022,44.989,296.571,50.689,293.334,63.712
			L293.334,63.712z M306.635,95.751c-4.437-1.071-8.292,1.285-9.384,5.81c-1.092,4.526,1.242,8.47,5.679,9.541
			c4.436,1.071,8.402-1.353,9.494-5.878C313.516,100.698,311.072,96.822,306.635,95.751z"/>
		<path style="fill-rule:evenodd;clip-rule:evenodd;fill:#9ABBE6;" d="M227.43,119.376l8.808,1.061
			c0.529-3.85,2.425-5.513,5.575-5.134c2.829,0.341,4.353,1.764,4.028,4.464c-0.743,6.172-8.721,5.798-9.913,15.699l8.551,1.03
			c0.906-7.522,10.962-7.616,12.131-17.324c0.867-7.201-3.981-11.894-12.597-12.931C234.82,105.134,228.632,109.933,227.43,119.376
			L227.43,119.376z M239.455,140.848c-3.215-0.387-5.736,1.592-6.131,4.871c-0.395,3.279,1.577,5.865,4.791,6.251
			c3.215,0.387,5.808-1.649,6.203-4.927C244.713,143.764,242.669,141.235,239.455,140.848z"/>
		<path style="fill-rule:evenodd;clip-rule:evenodd;fill:#9ABBE6;" d="M142.229,71.015l8.681-2.132
			c-0.871-3.817,0.325-6.059,3.43-6.822c2.788-0.685,4.731,0.115,5.385,2.776c1.494,6.083-6.159,8.567-3.762,18.325l8.427-2.07
			c-1.821-7.413,7.625-11.077,5.275-20.645c-1.743-7.097-7.983-9.796-16.473-7.711C144.13,54.961,140.004,61.685,142.229,71.015
			L142.229,71.015z M161.2,86.98c-3.168,0.778-4.841,3.541-4.047,6.772c0.794,3.232,3.572,4.968,6.74,4.19
			c3.168-0.778,4.889-3.62,4.095-6.851C167.194,87.859,164.368,86.202,161.2,86.98z"/>
	</g>
</g>
</svg>
